<svg width="886" height="92" viewBox="0 0 886 92" fill="none" xmlns="http://www.w3.org/2000/svg">
<mask id="path-1-outside-1_3142_8043" maskUnits="userSpaceOnUse" x="-0.525024" y="-0.313995" width="887" height="92" fill="black">
<rect fill="white" x="-0.525024" y="-0.313995" width="887" height="92"/>
<path d="M1.87798 11.99V8.278C1.87798 6.614 3.15798 5.206 4.94998 5.206H52.438V8.918C52.438 10.71 51.03 11.99 49.366 11.99H1.87798ZM4.82198 89.686C3.02998 89.686 1.74998 88.406 1.74998 86.614V46.038C1.74998 44.374 3.02998 42.966 4.82198 42.966H52.438V46.678C52.438 48.342 51.03 49.75 49.366 49.75H8.53398V89.686H4.82198ZM166.844 57.686V4.95C166.844 3.158 168.124 1.75 169.916 1.75H173.628V57.686C173.628 75.606 158.908 90.07 140.86 89.686C123.324 89.43 109.5 74.71 109.5 57.174V1.75H113.084C114.876 1.75 116.284 3.158 116.284 4.95V57.174C116.284 70.998 127.164 82.646 140.86 82.902C155.068 83.286 166.844 71.766 166.844 57.686ZM230.25 8.406C230.25 6.614 231.53 5.206 233.322 5.206H281.962V8.918C281.962 10.582 280.554 11.99 278.89 11.99H230.25V8.406ZM256.362 89.686H252.65V30.294C252.65 28.63 254.058 27.222 255.85 27.222H259.434V86.614C259.434 88.406 258.026 89.686 256.362 89.686ZM389.719 57.686V4.95C389.719 3.158 390.999 1.75 392.791 1.75H396.503V57.686C396.503 75.606 381.783 90.07 363.735 89.686C346.199 89.43 332.375 74.71 332.375 57.174V1.75H335.959C337.751 1.75 339.159 3.158 339.159 4.95V57.174C339.159 70.998 350.039 82.646 363.735 82.902C377.943 83.286 389.719 71.766 389.719 57.686ZM472.331 54.998C484.235 54.998 494.219 45.654 494.475 33.75C494.731 21.59 484.875 11.478 472.715 11.478H455.947C454.155 11.478 452.875 10.07 452.875 8.406V5.334H472.715C487.947 5.334 500.363 17.622 500.619 32.726C500.875 48.342 487.819 61.142 472.203 61.142H467.723L496.395 89.686H488.843C488.075 89.686 487.307 89.43 486.667 88.79L458.123 60.246C456.203 58.326 457.483 54.998 460.299 54.998H472.331ZM562.125 89.686V8.278C562.125 6.614 563.405 5.206 565.197 5.206H569.037V86.614C569.037 88.406 567.629 89.686 565.837 89.686H562.125ZM626.524 89.686L662.364 46.294L625.5 5.206H633.18C634.076 5.206 634.972 5.59 635.484 6.23L662.492 36.31L689.116 6.23C689.756 5.59 690.524 5.206 691.42 5.206H699.1L662.748 46.422L699.1 89.686H691.676C690.78 89.686 689.884 89.302 689.372 88.662L662.62 56.79L636.252 88.662C635.74 89.302 634.844 89.686 633.948 89.686H626.524ZM763.064 87.766C762.552 89.046 761.4 89.686 760.248 89.686H755L788.28 7.126C788.792 5.974 789.944 5.206 791.224 5.206H794.296C795.576 5.206 796.728 5.974 797.24 7.126L820.536 61.142H788.92V57.43C788.92 55.766 790.328 54.358 792.12 54.358H810.168L792.76 14.166L763.064 87.766ZM877.25 89.686V8.278C877.25 6.614 878.53 5.206 880.322 5.206H884.162V86.614C884.162 88.406 882.754 89.686 880.962 89.686H877.25Z"/>
</mask>
<path d="M1.87798 11.99V8.278C1.87798 6.614 3.15798 5.206 4.94998 5.206H52.438V8.918C52.438 10.71 51.03 11.99 49.366 11.99H1.87798ZM4.82198 89.686C3.02998 89.686 1.74998 88.406 1.74998 86.614V46.038C1.74998 44.374 3.02998 42.966 4.82198 42.966H52.438V46.678C52.438 48.342 51.03 49.75 49.366 49.75H8.53398V89.686H4.82198ZM166.844 57.686V4.95C166.844 3.158 168.124 1.75 169.916 1.75H173.628V57.686C173.628 75.606 158.908 90.07 140.86 89.686C123.324 89.43 109.5 74.71 109.5 57.174V1.75H113.084C114.876 1.75 116.284 3.158 116.284 4.95V57.174C116.284 70.998 127.164 82.646 140.86 82.902C155.068 83.286 166.844 71.766 166.844 57.686ZM230.25 8.406C230.25 6.614 231.53 5.206 233.322 5.206H281.962V8.918C281.962 10.582 280.554 11.99 278.89 11.99H230.25V8.406ZM256.362 89.686H252.65V30.294C252.65 28.63 254.058 27.222 255.85 27.222H259.434V86.614C259.434 88.406 258.026 89.686 256.362 89.686ZM389.719 57.686V4.95C389.719 3.158 390.999 1.75 392.791 1.75H396.503V57.686C396.503 75.606 381.783 90.07 363.735 89.686C346.199 89.43 332.375 74.71 332.375 57.174V1.75H335.959C337.751 1.75 339.159 3.158 339.159 4.95V57.174C339.159 70.998 350.039 82.646 363.735 82.902C377.943 83.286 389.719 71.766 389.719 57.686ZM472.331 54.998C484.235 54.998 494.219 45.654 494.475 33.75C494.731 21.59 484.875 11.478 472.715 11.478H455.947C454.155 11.478 452.875 10.07 452.875 8.406V5.334H472.715C487.947 5.334 500.363 17.622 500.619 32.726C500.875 48.342 487.819 61.142 472.203 61.142H467.723L496.395 89.686H488.843C488.075 89.686 487.307 89.43 486.667 88.79L458.123 60.246C456.203 58.326 457.483 54.998 460.299 54.998H472.331ZM562.125 89.686V8.278C562.125 6.614 563.405 5.206 565.197 5.206H569.037V86.614C569.037 88.406 567.629 89.686 565.837 89.686H562.125ZM626.524 89.686L662.364 46.294L625.5 5.206H633.18C634.076 5.206 634.972 5.59 635.484 6.23L662.492 36.31L689.116 6.23C689.756 5.59 690.524 5.206 691.42 5.206H699.1L662.748 46.422L699.1 89.686H691.676C690.78 89.686 689.884 89.302 689.372 88.662L662.62 56.79L636.252 88.662C635.74 89.302 634.844 89.686 633.948 89.686H626.524ZM763.064 87.766C762.552 89.046 761.4 89.686 760.248 89.686H755L788.28 7.126C788.792 5.974 789.944 5.206 791.224 5.206H794.296C795.576 5.206 796.728 5.974 797.24 7.126L820.536 61.142H788.92V57.43C788.92 55.766 790.328 54.358 792.12 54.358H810.168L792.76 14.166L763.064 87.766ZM877.25 89.686V8.278C877.25 6.614 878.53 5.206 880.322 5.206H884.162V86.614C884.162 88.406 882.754 89.686 880.962 89.686H877.25Z" fill="#F9F9F9"/>
<path d="M1.87798 11.99H0.127975V13.74H1.87798V11.99ZM52.438 5.206H54.188V3.456H52.438V5.206ZM52.438 42.966H54.188V41.216H52.438V42.966ZM8.53398 49.75V48H6.78398V49.75H8.53398ZM8.53398 89.686V91.436H10.284V89.686H8.53398ZM1.87798 11.99H3.62798V8.278H1.87798H0.127975V11.99H1.87798ZM1.87798 8.278H3.62798C3.62798 7.53233 4.17195 6.956 4.94998 6.956V5.206V3.456C2.144 3.456 0.127975 5.69567 0.127975 8.278H1.87798ZM4.94998 5.206V6.956H52.438V5.206V3.456H4.94998V5.206ZM52.438 5.206H50.688V8.918H52.438H54.188V5.206H52.438ZM52.438 8.918H50.688C50.688 9.69603 50.1116 10.24 49.366 10.24V11.99V13.74C51.9483 13.74 54.188 11.724 54.188 8.918H52.438ZM49.366 11.99V10.24H1.87798V11.99V13.74H49.366V11.99ZM4.82198 89.686V87.936C3.99648 87.936 3.49998 87.4395 3.49998 86.614H1.74998H-2.28882e-05C-2.28882e-05 89.3725 2.06348 91.436 4.82198 91.436V89.686ZM1.74998 86.614H3.49998V46.038H1.74998H-2.28882e-05V86.614H1.74998ZM1.74998 46.038H3.49998C3.49998 45.2923 4.04395 44.716 4.82198 44.716V42.966V41.216C2.01601 41.216 -2.28882e-05 43.4557 -2.28882e-05 46.038H1.74998ZM4.82198 42.966V44.716H52.438V42.966V41.216H4.82198V42.966ZM52.438 42.966H50.688V46.678H52.438H54.188V42.966H52.438ZM52.438 46.678H50.688C50.688 47.3755 50.0635 48 49.366 48V49.75V51.5C51.9965 51.5 54.188 49.3085 54.188 46.678H52.438ZM49.366 49.75V48H8.53398V49.75V51.5H49.366V49.75ZM8.53398 49.75H6.78398V89.686H8.53398H10.284V49.75H8.53398ZM8.53398 89.686V87.936H4.82198V89.686V91.436H8.53398V89.686ZM173.628 1.75H175.378V0H173.628V1.75ZM140.86 89.686L140.897 87.9364L140.886 87.9362L140.86 89.686ZM109.5 1.75V0H107.75V1.75H109.5ZM140.86 82.902L140.907 81.1526L140.9 81.1524L140.893 81.1523L140.86 82.902ZM166.844 57.686H168.594V4.95H166.844H165.094V57.686H166.844ZM166.844 4.95H168.594C168.594 4.02891 169.183 3.5 169.916 3.5V1.75V0C167.065 0 165.094 2.28709 165.094 4.95H166.844ZM169.916 1.75V3.5H173.628V1.75V0H169.916V1.75ZM173.628 1.75H171.878V57.686H173.628H175.378V1.75H173.628ZM173.628 57.686H171.878C171.878 74.6241 157.965 88.2996 140.897 87.9364L140.86 89.686L140.823 91.4356C159.851 91.8405 175.378 76.5879 175.378 57.686H173.628ZM140.86 89.686L140.886 87.9362C124.354 87.6949 111.25 73.8025 111.25 57.174H109.5H107.75C107.75 75.6175 122.294 91.1652 140.834 91.4358L140.86 89.686ZM109.5 57.174H111.25V1.75H109.5H107.75V57.174H109.5ZM109.5 1.75V3.5H113.084V1.75V0H109.5V1.75ZM113.084 1.75V3.5C113.909 3.5 114.534 4.1245 114.534 4.95H116.284H118.034C118.034 2.1915 115.842 0 113.084 0V1.75ZM116.284 4.95H114.534V57.174H116.284H118.034V4.95H116.284ZM116.284 57.174H114.534C114.534 71.8957 126.123 84.3768 140.827 84.6517L140.86 82.902L140.893 81.1523C128.205 80.9152 118.034 70.1003 118.034 57.174H116.284ZM140.86 82.902L140.813 84.6514C156.005 85.062 168.594 72.7518 168.594 57.686H166.844H165.094C165.094 70.7802 154.131 81.5101 140.907 81.1526L140.86 82.902ZM281.962 5.206H283.712V3.456H281.962V5.206ZM230.25 11.99H228.5V13.74H230.25V11.99ZM252.65 89.686H250.9V91.436H252.65V89.686ZM259.434 27.222H261.184V25.472H259.434V27.222ZM230.25 8.406H232C232 7.48491 232.589 6.956 233.322 6.956V5.206V3.456C230.471 3.456 228.5 5.74309 228.5 8.406H230.25ZM233.322 5.206V6.956H281.962V5.206V3.456H233.322V5.206ZM281.962 5.206H280.212V8.918H281.962H283.712V5.206H281.962ZM281.962 8.918H280.212C280.212 9.6155 279.587 10.24 278.89 10.24V11.99V13.74C281.52 13.74 283.712 11.5485 283.712 8.918H281.962ZM278.89 11.99V10.24H230.25V11.99V13.74H278.89V11.99ZM230.25 11.99H232V8.406H230.25H228.5V11.99H230.25ZM256.362 89.686V87.936H252.65V89.686V91.436H256.362V89.686ZM252.65 89.686H254.4V30.294H252.65H250.9V89.686H252.65ZM252.65 30.294H254.4C254.4 29.6426 254.978 28.972 255.85 28.972V27.222V25.472C253.138 25.472 250.9 27.6174 250.9 30.294H252.65ZM255.85 27.222V28.972H259.434V27.222V25.472H255.85V27.222ZM259.434 27.222H257.684V86.614H259.434H261.184V27.222H259.434ZM259.434 86.614H257.684C257.684 87.392 257.108 87.936 256.362 87.936V89.686V91.436C258.944 91.436 261.184 89.42 261.184 86.614H259.434ZM396.503 1.75H398.253V0H396.503V1.75ZM363.735 89.686L363.772 87.9364L363.761 87.9362L363.735 89.686ZM332.375 1.75V0H330.625V1.75H332.375ZM363.735 82.902L363.782 81.1526L363.775 81.1524L363.768 81.1523L363.735 82.902ZM389.719 57.686H391.469V4.95H389.719H387.969V57.686H389.719ZM389.719 4.95H391.469C391.469 4.02891 392.058 3.5 392.791 3.5V1.75V0C389.94 0 387.969 2.28709 387.969 4.95H389.719ZM392.791 1.75V3.5H396.503V1.75V0H392.791V1.75ZM396.503 1.75H394.753V57.686H396.503H398.253V1.75H396.503ZM396.503 57.686H394.753C394.753 74.6241 380.84 88.2996 363.772 87.9364L363.735 89.686L363.698 91.4356C382.726 91.8405 398.253 76.5879 398.253 57.686H396.503ZM363.735 89.686L363.761 87.9362C347.229 87.6949 334.125 73.8025 334.125 57.174H332.375H330.625C330.625 75.6175 345.169 91.1652 363.709 91.4358L363.735 89.686ZM332.375 57.174H334.125V1.75H332.375H330.625V57.174H332.375ZM332.375 1.75V3.5H335.959V1.75V0H332.375V1.75ZM335.959 1.75V3.5C336.784 3.5 337.409 4.1245 337.409 4.95H339.159H340.909C340.909 2.1915 338.717 0 335.959 0V1.75ZM339.159 4.95H337.409V57.174H339.159H340.909V4.95H339.159ZM339.159 57.174H337.409C337.409 71.8957 348.998 84.3768 363.702 84.6517L363.735 82.902L363.768 81.1523C351.08 80.9152 340.909 70.1003 340.909 57.174H339.159ZM363.735 82.902L363.688 84.6514C378.88 85.062 391.469 72.7518 391.469 57.686H389.719H387.969C387.969 70.7802 377.006 81.5101 363.782 81.1526L363.735 82.902ZM494.475 33.75L496.225 33.7876L496.225 33.7868L494.475 33.75ZM452.875 5.334V3.584H451.125V5.334H452.875ZM500.619 32.726L502.369 32.6973L502.369 32.6963L500.619 32.726ZM467.723 61.142V59.392H463.485L466.488 62.3822L467.723 61.142ZM496.395 89.686V91.436H500.633L497.63 88.4458L496.395 89.686ZM486.667 88.79L487.904 87.5526V87.5526L486.667 88.79ZM458.123 60.246L459.36 59.0086V59.0086L458.123 60.246ZM472.331 54.998V56.748C485.142 56.748 495.947 46.6878 496.225 33.7876L494.475 33.75L492.725 33.7124C492.491 44.6202 483.328 53.248 472.331 53.248V54.998ZM494.475 33.75L496.225 33.7868C496.501 20.6511 485.861 9.728 472.715 9.728V11.478V13.228C483.889 13.228 492.961 22.5289 492.725 33.7132L494.475 33.75ZM472.715 11.478V9.728H455.947V11.478V13.228H472.715V11.478ZM455.947 11.478V9.728C455.169 9.728 454.625 9.15167 454.625 8.406H452.875H451.125C451.125 10.9883 453.141 13.228 455.947 13.228V11.478ZM452.875 8.406H454.625V5.334H452.875H451.125V8.406H452.875ZM452.875 5.334V7.084H472.715V5.334V3.584H452.875V5.334ZM472.715 5.334V7.084C486.99 7.084 498.629 18.6049 498.869 32.7557L500.619 32.726L502.369 32.6963C502.097 16.6391 488.903 3.584 472.715 3.584V5.334ZM500.619 32.726L498.869 32.7547C499.109 47.3557 486.879 59.392 472.203 59.392V61.142V62.892C488.759 62.892 502.641 49.3283 502.369 32.6973L500.619 32.726ZM472.203 61.142V59.392H467.723V61.142V62.892H472.203V61.142ZM467.723 61.142L466.488 62.3822L495.16 90.9262L496.395 89.686L497.63 88.4458L468.958 59.9018L467.723 61.142ZM496.395 89.686V87.936H488.843V89.686V91.436H496.395V89.686ZM488.843 89.686V87.936C488.488 87.936 488.182 87.83 487.904 87.5526L486.667 88.79L485.43 90.0274C486.432 91.03 487.662 91.436 488.843 91.436V89.686ZM486.667 88.79L487.904 87.5526L459.36 59.0086L458.123 60.246L456.886 61.4834L485.43 90.0274L486.667 88.79ZM458.123 60.246L459.36 59.0086C458.501 58.1494 459.101 56.748 460.299 56.748V54.998V53.248C455.865 53.248 453.905 58.5026 456.886 61.4834L458.123 60.246ZM460.299 54.998V56.748H472.331V54.998V53.248H460.299V54.998ZM562.125 89.686H560.375V91.436H562.125V89.686ZM569.037 5.206H570.787V3.456H569.037V5.206ZM562.125 89.686H563.875V8.278H562.125H560.375V89.686H562.125ZM562.125 8.278H563.875C563.875 7.53233 564.419 6.956 565.197 6.956V5.206V3.456C562.391 3.456 560.375 5.69567 560.375 8.278H562.125ZM565.197 5.206V6.956H569.037V5.206V3.456H565.197V5.206ZM569.037 5.206H567.287V86.614H569.037H570.787V5.206H569.037ZM569.037 86.614H567.287C567.287 87.3466 566.758 87.936 565.837 87.936V89.686V91.436C568.5 91.436 570.787 89.4654 570.787 86.614H569.037ZM565.837 89.686V87.936H562.125V89.686V91.436H565.837V89.686ZM626.524 89.686L625.175 88.5716L622.809 91.436H626.524V89.686ZM662.364 46.294L663.713 47.4084L664.673 46.2468L663.667 45.1253L662.364 46.294ZM625.5 5.206V3.456H621.579L624.197 6.37467L625.5 5.206ZM635.484 6.23L634.117 7.32322L634.149 7.36211L634.182 7.39916L635.484 6.23ZM662.492 36.31L661.19 37.4792L662.501 38.9398L663.802 37.4699L662.492 36.31ZM689.116 6.23L687.879 4.99257L687.841 5.03024L687.806 5.07014L689.116 6.23ZM699.1 5.206L700.412 6.36357L702.977 3.456H699.1V5.206ZM662.748 46.422L661.436 45.2644L660.439 46.3943L661.408 47.5478L662.748 46.422ZM699.1 89.686V91.436H702.856L700.44 88.5602L699.1 89.686ZM689.372 88.662L690.739 87.5688L690.726 87.5527L690.712 87.5369L689.372 88.662ZM662.62 56.79L663.96 55.6649L662.61 54.0564L661.272 55.6745L662.62 56.79ZM636.252 88.662L634.904 87.5465L634.894 87.5576L634.885 87.5688L636.252 88.662ZM626.524 89.686L627.873 90.8004L663.713 47.4084L662.364 46.294L661.015 45.1796L625.175 88.5716L626.524 89.686ZM662.364 46.294L663.667 45.1253L626.803 4.03733L625.5 5.206L624.197 6.37467L661.061 47.4627L662.364 46.294ZM625.5 5.206V6.956H633.18V5.206V3.456H625.5V5.206ZM633.18 5.206V6.956C633.634 6.956 633.99 7.16373 634.117 7.32322L635.484 6.23L636.851 5.13679C635.954 4.01628 634.518 3.456 633.18 3.456V5.206ZM635.484 6.23L634.182 7.39916L661.19 37.4792L662.492 36.31L663.794 35.1408L636.786 5.06085L635.484 6.23ZM662.492 36.31L663.802 37.4699L690.426 7.38987L689.116 6.23L687.806 5.07014L661.182 35.1501L662.492 36.31ZM689.116 6.23L690.353 7.46744C690.734 7.08649 691.078 6.956 691.42 6.956V5.206V3.456C689.97 3.456 688.778 4.09352 687.879 4.99257L689.116 6.23ZM691.42 5.206V6.956H699.1V5.206V3.456H691.42V5.206ZM699.1 5.206L697.788 4.04843L661.436 45.2644L662.748 46.422L664.06 47.5796L700.412 6.36357L699.1 5.206ZM662.748 46.422L661.408 47.5478L697.76 90.8118L699.1 89.686L700.44 88.5602L664.088 45.2962L662.748 46.422ZM699.1 89.686V87.936H691.676V89.686V91.436H699.1V89.686ZM691.676 89.686V87.936C691.222 87.936 690.866 87.7283 690.739 87.5688L689.372 88.662L688.005 89.7552C688.902 90.8757 690.338 91.436 691.676 91.436V89.686ZM689.372 88.662L690.712 87.5369L663.96 55.6649L662.62 56.79L661.28 57.9151L688.032 89.7871L689.372 88.662ZM662.62 56.79L661.272 55.6745L634.904 87.5465L636.252 88.662L637.6 89.7775L663.968 57.9055L662.62 56.79ZM636.252 88.662L634.885 87.5688C634.758 87.7283 634.402 87.936 633.948 87.936V89.686V91.436C635.286 91.436 636.722 90.8757 637.618 89.7552L636.252 88.662ZM633.948 89.686V87.936H626.524V89.686V91.436H633.948V89.686ZM763.064 87.766L761.441 87.1112L761.439 87.1161L763.064 87.766ZM755 89.686L753.377 89.0317L752.408 91.436H755V89.686ZM788.28 7.126L786.681 6.41526L786.668 6.44328L786.657 6.47173L788.28 7.126ZM797.24 7.126L798.847 6.43297L798.843 6.42409L798.839 6.41526L797.24 7.126ZM820.536 61.142V62.892H823.197L822.143 60.449L820.536 61.142ZM788.92 61.142H787.17V62.892H788.92V61.142ZM810.168 54.358V56.108H812.833L811.774 53.6625L810.168 54.358ZM792.76 14.166L794.366 13.4705L792.703 9.63077L791.137 13.5112L792.76 14.166ZM763.064 87.766L761.439 87.1161C761.216 87.6746 760.748 87.936 760.248 87.936V89.686V91.436C762.052 91.436 763.888 90.4174 764.689 88.4159L763.064 87.766ZM760.248 89.686V87.936H755V89.686V91.436H760.248V89.686ZM755 89.686L756.623 90.3403L789.903 7.78027L788.28 7.126L786.657 6.47173L753.377 89.0317L755 89.686ZM788.28 7.126L789.879 7.83674C790.115 7.30531 790.648 6.956 791.224 6.956V5.206V3.456C789.24 3.456 787.469 4.64269 786.681 6.41526L788.28 7.126ZM791.224 5.206V6.956H794.296V5.206V3.456H791.224V5.206ZM794.296 5.206V6.956C794.872 6.956 795.405 7.30531 795.641 7.83674L797.24 7.126L798.839 6.41526C798.051 4.64269 796.28 3.456 794.296 3.456V5.206ZM797.24 7.126L795.633 7.81903L818.929 61.835L820.536 61.142L822.143 60.449L798.847 6.43297L797.24 7.126ZM820.536 61.142V59.392H788.92V61.142V62.892H820.536V61.142ZM788.92 61.142H790.67V57.43H788.92H787.17V61.142H788.92ZM788.92 57.43H790.67C790.67 56.7786 791.248 56.108 792.12 56.108V54.358V52.608C789.408 52.608 787.17 54.7534 787.17 57.43H788.92ZM792.12 54.358V56.108H810.168V54.358V52.608H792.12V54.358ZM810.168 54.358L811.774 53.6625L794.366 13.4705L792.76 14.166L791.154 14.8615L808.562 55.0535L810.168 54.358ZM792.76 14.166L791.137 13.5112L761.441 87.1112L763.064 87.766L764.687 88.4208L794.383 14.8208L792.76 14.166ZM877.25 89.686H875.5V91.436H877.25V89.686ZM884.162 5.206H885.912V3.456H884.162V5.206ZM877.25 89.686H879V8.278H877.25H875.5V89.686H877.25ZM877.25 8.278H879C879 7.53233 879.544 6.956 880.322 6.956V5.206V3.456C877.516 3.456 875.5 5.69567 875.5 8.278H877.25ZM880.322 5.206V6.956H884.162V5.206V3.456H880.322V5.206ZM884.162 5.206H882.412V86.614H884.162H885.912V5.206H884.162ZM884.162 86.614H882.412C882.412 87.3466 881.883 87.936 880.962 87.936V89.686V91.436C883.625 91.436 885.912 89.4654 885.912 86.614H884.162ZM880.962 89.686V87.936H877.25V89.686V91.436H880.962V89.686Z" fill="#0C0C11" mask="url(#path-1-outside-1_3142_8043)"/>
</svg>
